# xmcd
#
# Track frame offsets: 
#        150
#        13550
#        26252
#        42211
#        66231
#        80853
#        95464
#        109775
#        128865
#        142285
#        153852
#        162954
#        176197
#        189486
#        202141
#        217985
#        233393
#        245865
#
# Disc length: 3519 seconds
#
# Revision: 0
# Processed by: cddbd v1.5.1PL2 Copyright (c) Steve Scherf et al.
# Submitted via: ExactAudioCopy v0.95a5
#
DISCID=fd0dbd12
DTITLE=Various Artist - It's All About The Label
DYEAR=2006
DGENRE=Artrocker
TTITLE0=The Young Knives - Kitchener
TTITLE1=The Pigeon Detectives - I'm Always Right
TTITLE2=The Oxfam Glamour Models - Kick Out The Grams
TTITLE3=Ladyfuzz - My Summer Of Fun
TTITLE4=Stopstarts - Metronome
TTITLE5=Shut Your Eyes and You'll Burst Into Flames - Amputee Smile
TTITLE6=Fury Of The Headteachers - Fables
TTITLE7=¡Forward, Russia! - Fifteen Pt. 1
TTITLE8=Jeremy Warmsley - After The Fact
TTITLE9=The Yell - My Baby's Into Witchcraft
TTITLE10=Polytechnic - Let Me Down
TTITLE11=Linear - Twisted Eyes
TTITLE12=Battle - Feel The Same
TTITLE13=The Affair - Andy
TTITLE14=Yes Boss ft. Witty and Nasty Boi - Meet The Boss
TTITLE15=Leaving The Fold - Contort For The Two Of Them
TTITLE16=The Home Wreckers Club - What Went Wrong
TTITLE17=Burningpilot - Meat Product
EXTD=
EXTT0=
EXTT1=
EXTT2=
EXTT3=
EXTT4=
EXTT5=
EXTT6=
EXTT7=
EXTT8=
EXTT9=
EXTT10=
EXTT11=
EXTT12=
EXTT13=
EXTT14=
EXTT15=
EXTT16=
EXTT17=
PLAYORDER=
